<?xml version="1.0" standalone="no"?>
<!DOCTYPE svg PUBLIC "-//W3C//DTD SVG 20010904//EN"
 "http://www.w3.org/TR/2001/REC-SVG-20010904/DTD/svg10.dtd">
<svg version="1.0" xmlns="http://www.w3.org/2000/svg"
 width="700.000000pt" height="700.000000pt" viewBox="0 0 700.000000 700.000000"
 preserveAspectRatio="xMidYMid meet">
<metadata>
Created by potrace 1.11, written by Peter Selinger 2001-2013
</metadata>
<g transform="translate(0.000000,700.000000) scale(0.100000,-0.100000)"
fill="#000000" stroke="none">
<path d="M3237 5954 c-1 -1 -56 -4 -122 -8 -66 -3 -136 -8 -155 -11 -19 -2
-60 -6 -90 -9 -30 -3 -64 -8 -75 -10 -34 -6 -104 -18 -128 -20 -35 -5 -135
-26 -222 -48 -44 -11 -87 -21 -95 -23 -46 -10 -226 -72 -318 -111 -401 -168
-725 -422 -944 -741 -167 -242 -280 -540 -324 -848 -3 -27 -8 -59 -10 -69 -2
-11 -7 -65 -11 -120 -15 -223 -3 -467 33 -666 127 -706 557 -1219 1269 -1515
44 -19 231 -84 255 -90 8 -1 58 -14 110 -27 117 -30 184 -46 230 -52 19 -3 44
-7 55 -10 11 -2 42 -7 68 -10 27 -4 56 -9 65 -11 16 -2 140 -15 207 -20 108
-9 269 -16 385 -17 l134 -1 46 -41 c25 -22 61 -56 81 -76 20 -19 53 -50 75
-69 21 -19 88 -79 149 -135 60 -56 141 -130 180 -166 38 -35 72 -67 75 -70 3
-3 52 -48 110 -100 58 -52 112 -102 120 -110 13 -13 96 -15 635 -13 341 1 628
2 637 2 11 1 -24 39 -94 104 -62 56 -122 111 -134 122 -11 11 -65 61 -119 110
-54 50 -110 101 -125 115 -15 14 -69 63 -120 110 -107 98 -109 100 -261 240
-169 157 -172 160 -168 163 2 2 31 14 64 27 346 134 715 392 910 635 22 28 43
52 46 55 17 14 141 206 182 280 106 194 192 466 222 695 24 192 25 553 0 684
-1 9 -6 41 -10 71 -9 68 -11 77 -41 203 -2 9 -6 27 -9 40 -3 12 -19 65 -36
117 -133 406 -395 743 -770 993 -221 147 -442 245 -754 333 -72 20 -276 61
-370 74 -44 5 -91 12 -105 14 -37 6 -134 15 -230 22 -80 6 -498 13 -503 8z
m412 -813 c374 -60 620 -205 810 -481 54 -79 131 -226 131 -250 0 -6 4 -18 9
-28 31 -57 74 -243 91 -402 13 -111 16 -343 6 -450 -41 -431 -192 -750 -458
-963 -144 -115 -355 -205 -543 -232 -22 -3 -56 -8 -75 -11 -61 -10 -302 -11
-395 -2 -606 57 -980 426 -1079 1063 -35 225 -27 560 19 788 114 565 512 925
1075 973 41 4 76 7 77 8 8 7 276 -5 332 -13z"/>
</g>
</svg>
