<?xml version="1.0" encoding="UTF-8" standalone="no"?>
<!-- Generator: Adobe Illustrator 15.0.2, SVG Export Plug-In . SVG Version: 6.00 Build 0)  -->

<svg
   xmlns:dc="http://purl.org/dc/elements/1.1/"
   xmlns:cc="http://creativecommons.org/ns#"
   xmlns:rdf="http://www.w3.org/1999/02/22-rdf-syntax-ns#"
   xmlns:svg="http://www.w3.org/2000/svg"
   xmlns="http://www.w3.org/2000/svg"
   xmlns:sodipodi="http://sodipodi.sourceforge.net/DTD/sodipodi-0.dtd"
   xmlns:inkscape="http://www.inkscape.org/namespaces/inkscape"
   version="1.0"
   id="Layer_1"
   width="16"
   height="16"
   viewBox="0 0 1024 1024"
   sodipodi:docname="icon-linkedin.svg"
   inkscape:version="0.92.1 r15371"
   xml:space="preserve"><metadata
     id="metadata9"><rdf:RDF><cc:Work
         rdf:about=""><dc:format>image/svg+xml</dc:format><dc:type
           rdf:resource="http://purl.org/dc/dcmitype/StillImage" /><dc:title></dc:title></cc:Work></rdf:RDF></metadata><defs
     id="defs7" /><sodipodi:namedview
     pagecolor="#ffffff"
     bordercolor="#666666"
     borderopacity="1"
     objecttolerance="10"
     gridtolerance="10"
     guidetolerance="10"
     inkscape:pageopacity="0"
     inkscape:pageshadow="2"
     inkscape:window-width="1871"
     inkscape:window-height="1056"
     id="namedview5"
     showgrid="false"
     inkscape:zoom="0.23046875"
     inkscape:cx="23.864407"
     inkscape:cy="512"
     inkscape:window-x="49"
     inkscape:window-y="24"
     inkscape:window-maximized="1"
     inkscape:current-layer="Layer_1" /><path
     d="M 832.025,810.139 H 699.509 V 602.55 c 0,-49.444 -1.023,-113.162 -68.959,-113.162 -68.999,0 -79.525,53.939 -79.525,109.612 V 810.139 H 418.428 V 383.366 h 127.214 v 58.314 h 1.813 c 17.742,-33.554 61.015,-68.921 125.48,-68.921 134.253,0 159.09,88.357 159.09,203.292 V 810.139 Z M 345.763,248.163 c 0,42.426 -34.441,76.847 -76.885,76.847 -42.464,0 -76.866,-34.421 -76.866,-76.847 0,-42.502 34.402,-76.964 76.866,-76.964 42.443,0 76.885,34.462 76.885,76.964 M 202.542,383.366 H 335.215 V 810.138 H 202.542 Z M 1024,511.98 C 1024,229.238 794.768,0 512.011,0 229.234,0 0,229.238 0,511.98 0,794.803 229.234,1024 512.011,1024 794.768,1024 1024,794.803 1024,511.98"
     id="path2"
     inkscape:connector-curvature="0"
     style="fill:#d9d9d9" /></svg>